<?xml version="1.0" encoding="UTF-8"?>
<svg id="Layer_2" data-name="Layer 2" xmlns="http://www.w3.org/2000/svg" viewBox="0 0 332.58 104.76">
  <defs>
    <style>
      .cls-1 {
        fill: #ffd100;
      }

      .cls-1, .cls-2, .cls-3, .cls-4, .cls-5, .cls-6, .cls-7, .cls-8, .cls-9, .cls-10, .cls-11 {
        stroke-width: 0px;
      }

      .cls-2 {
        fill: #008a41;
      }

      .cls-3 {
        fill: #3c3c3b;
      }

      .cls-4 {
        fill: #011c94;
      }

      .cls-5 {
        fill: #006c28;
      }

      .cls-6 {
        fill: #fff;
        stroke: #fff;
        stroke-width: 8px;
        stroke-linejoin: round;
      }

      .cls-7 {
        fill: #382d47;
      }

      .cls-8 {
        fill: #3799d5;
      }

      .cls-9 {
        fill: #000034;
      }

      .cls-10 {
        fill: #066b30;
      }

      .cls-11 {
        fill: #ff585f;
      }
    </style>
  </defs>
  <g id="Layer_1-2" data-name="Layer 1">
    <g id="Layer_1-2" data-name="Layer 1-2">
      <path class="cls-3" d="M119.07,33.66c0-2.79,2.26-5.06,5.06-5.06s5.06,2.26,5.06,5.06v36.67c0,2.79-2.26,5.06-5.06,5.06s-5.06-2.26-5.06-5.06h0v-36.67Z"/>
      <path class="cls-3" d="M144.62,33.8c-.02-2.77,2.21-5.04,4.99-5.06.02,0,.05,0,.07,0h1.05c2.43,0,3.88,1.13,5.26,2.95l19.51,25.62v-23.75c-.13-2.76,2-5.1,4.76-5.23,2.76-.13,5.1,2,5.23,4.76,0,.16,0,.32,0,.48v36.64c.02,2.77-2.21,5.04-4.99,5.06-.02,0-.05,0-.07,0h-.33c-2.43,0-3.88-1.13-5.26-2.95l-20.24-26.55v24.64c.13,2.76-2,5.1-4.76,5.23-2.76.13-5.1-2-5.23-4.76,0-.16,0-.32,0-.48v-36.59Z"/>
      <path class="cls-3" d="M197.44,71.64c-1.18-.94-1.88-2.37-1.91-3.88-.04-2.65,2.08-4.83,4.73-4.86.02,0,.05,0,.07,0,1.1-.02,2.18.35,3.03,1.05,1.71,1.44,3.87,2.24,6.11,2.26,3.94,0,6.3-2.26,6.3-7.61v-24.94c.13-2.8,2.51-4.95,5.3-4.82,2.61.12,4.7,2.21,4.82,4.82v25.43c0,5.45-1.57,9.54-4.34,12.28-2.77,2.75-6.96,4.28-11.96,4.28-4.38.07-8.67-1.34-12.15-4"/>
      <path class="cls-3" d="M240.61,33.66c0-2.79,2.26-5.06,5.06-5.06s5.06,2.26,5.06,5.06v36.67c0,2.79-2.26,5.06-5.06,5.06s-5.06-2.26-5.06-5.06h0v-36.67Z"/>
      <path class="cls-3" d="M266.16,33.8c-.02-2.77,2.21-5.04,4.99-5.06.02,0,.05,0,.07,0h1.05c2.43,0,3.88,1.13,5.26,2.95l19.51,25.62v-23.75c-.13-2.76,2-5.1,4.76-5.23,2.76-.13,5.1,2,5.23,4.76,0,.16,0,.32,0,.48v36.64c.02,2.77-2.21,5.04-4.99,5.06,0,0-.02,0-.02,0h-.32c-2.43,0-3.88-1.13-5.26-2.95l-20.29-26.55v24.64c.13,2.76-2,5.1-4.76,5.23-2.76.13-5.1-2-5.23-4.76,0-.16,0-.32,0-.48v-36.59Z"/>
      <path class="cls-3" d="M322.47,33.66c0-2.79,2.26-5.06,5.06-5.06s5.06,2.26,5.06,5.06v36.67c0,2.79-2.26,5.06-5.06,5.06s-5.06-2.26-5.06-5.06h0v-36.67Z"/>
      <path class="cls-6" d="M85.37,30.47c-1.95-1.95-4.56-3.09-7.32-3.21l.46-.48c4.32-4.34,4.31-11.35-.02-15.68-4.34-4.32-11.35-4.31-15.68.02l-.38.4c-.26-6.1-5.41-10.84-11.52-10.59-2.77.12-5.4,1.27-7.36,3.23l-6.44,6.44C36.86,4.5,31.7-.24,25.6.02c-2.77.12-5.4,1.27-7.36,3.23L3.25,18.24c-4.32,4.32-4.33,11.32-.02,15.64,2.01,2.01,4.72,3.18,7.56,3.25-3.63,4.91-2.6,11.84,2.31,15.47,4.41,3.26,10.54,2.8,14.42-1.08l3.81-3.81c.22,5.75,4.83,10.35,10.58,10.56l-7.05,7.05c-4.32,4.32-4.32,11.32,0,15.64,1.96,1.97,4.59,3.12,7.37,3.23l-1.3,1.29c-4.53,4.11-4.86,11.12-.74,15.64,4.11,4.53,11.12,4.86,15.64.74.26-.23.5-.48.73-.73l20.36-20.36c4.32-4.32,4.32-11.32,0-15.64-1.96-1.97-4.59-3.12-7.37-3.23l15.84-15.84c4.32-4.33,4.32-11.34,0-15.67"/>
      <path class="cls-1" d="M48.75,104.39c-6.12,0-11.07-4.96-11.07-11.08,0-2.93,1.17-5.75,3.24-7.82l20.36-20.36c4.34-4.32,11.35-4.3,15.67.03,4.32,4.34,4.3,11.35-.03,15.67l-20.36,20.36c-2.07,2.08-4.89,3.24-7.83,3.24"/>
      <path class="cls-2" d="M42.69,84.22c-6.12,0-11.07-4.96-11.07-11.08,0-2.93,1.17-5.75,3.24-7.82l34.85-34.85c4.35-4.3,11.36-4.27,15.66.08,4.27,4.32,4.27,11.27,0,15.59l-34.85,34.84c-2.07,2.08-4.89,3.25-7.83,3.25"/>
      <path class="cls-5" d="M69.54,61.95c-3.1-.14-6.11,1.03-8.3,3.22l-19.01,19.03h.46c2.94,0,5.75-1.17,7.83-3.25l19.03-19Z"/>
      <path class="cls-8" d="M42.37,58.3c-6.12,0-11.07-4.96-11.07-11.08,0-2.93,1.17-5.75,3.24-7.82l28.28-28.28c4.44-4.2,11.45-4.01,15.65.44,4.04,4.27,4.04,10.96-.01,15.23l-28.28,28.28c-2.07,2.09-4.89,3.25-7.83,3.25"/>
      <path class="cls-10" d="M78.05,27.26c-3.09-.14-6.1,1.03-8.29,3.21l-27.85,27.8h.46c2.94,0,5.76-1.16,7.83-3.25l27.85-27.77Z"/>
      <path class="cls-11" d="M19.7,54.76c-6.12,0-11.07-4.96-11.07-11.08,0-2.93,1.17-5.75,3.24-7.82L43.54,4.18C47.98-.03,54.99.16,59.19,4.6c4.05,4.27,4.05,10.95.01,15.23l-31.67,31.67c-2.08,2.08-4.89,3.24-7.83,3.24"/>
      <path class="cls-7" d="M62.43,11.52l-27.88,27.87c-2.19,2.2-3.36,5.21-3.21,8.31l27.87-27.88c2.19-2.19,3.36-5.21,3.22-8.3"/>
      <path class="cls-9" d="M10.79,37.13h.28c2.93.02,5.74-1.13,7.83-3.19l15.03-15.03c2.19-2.19,3.36-5.21,3.22-8.3l-25.29,25.25c-.41.39-.79.82-1.13,1.28"/>
      <path class="cls-4" d="M11.87,35.85l25.25-25.25v1.13C37.49,5.64,32.85.39,26.75.02c-3.17-.19-6.27.98-8.51,3.23L3.25,18.24c-4.32,4.32-4.33,11.32-.02,15.64,2.01,2.01,4.72,3.18,7.56,3.25.34-.45.72-.88,1.13-1.28"/>
    </g>
  </g>
</svg>